<?xml version="1.0"?>
<svg xmlns="http://www.w3.org/2000/svg" xmlns:xlink="http://www.w3.org/1999/xlink" xmlns:svgjs="http://svgjs.com/svgjs" version="1.1" width="512" height="512" x="0" y="0" viewBox="0 0 496.519 496.519" style="enable-background:new 0 0 512 512" xml:space="preserve" class=""><g><g xmlns="http://www.w3.org/2000/svg"><g><path d="m132.625 101.844 26.226 337.248c3.534 32.669 31.115 57.427 63.975 57.427h74.246c33.002 0 60.654-24.967 64.014-57.797l25.256-336.962c.885-8.65-5.903-16.167-14.597-16.167h-224.532c-8.729-.001-15.527 7.573-14.588 16.251z" fill="#abd0f7" data-original="#c1e5ef" style="" class=""/><path d="m241.675 441.419c-1.241 0-2.501-.159-3.757-.492-7.815-2.069-12.472-10.082-10.402-17.896l108.227-408.699c2.068-7.815 10.081-12.473 17.896-10.403 7.814 2.069 12.472 10.082 10.402 17.896l-108.226 408.7c-1.737 6.559-7.661 10.894-14.14 10.894z" fill="#f1c95c" data-original="#f6e06e" style="" class=""/><path d="m169.587 155.268 17.451 261.852c2.544 27.443 22.399 48.239 46.054 48.239h53.448c23.757 0 43.664-20.972 46.082-48.55l16.799-261.541z" fill="#ffeea6" data-original="#a1e8c3" style="" class=""/><path d="m175.155 238.815 11.883 178.305c2.544 27.443 22.399 48.239 46.054 48.239h53.448c23.757 0 43.664-20.972 46.082-48.55l11.433-177.994z" fill="#ffffff" data-original="#ffffff" style="" class=""/><g fill="#9781dd"><ellipse cx="222.951" cy="434.931" rx="22.56" ry="22.56" transform="matrix(.16 -.987 .987 .16 -242.077 585.335)" fill="#c17db8" data-original="#9781dd" style="" class=""/><ellipse cx="304.254" cy="375.763" rx="22.56" ry="22.56" transform="matrix(.23 -.973 .973 .23 -131.361 585.545)" fill="#c17db8" data-original="#9781dd" style="" class=""/><ellipse cx="298.294" cy="433.654" rx="22.56" ry="22.56" transform="matrix(.23 -.973 .973 .23 -192.293 624.335)" fill="#c17db8" data-original="#9781dd" style="" class=""/><ellipse cx="215.715" cy="375.763" rx="22.56" ry="22.56" transform="matrix(.23 -.973 .973 .23 -199.558 499.375)" fill="#c17db8" data-original="#9781dd" style="" class=""/><ellipse cx="302.226" cy="307.755" rx="22.56" ry="22.56" transform="matrix(.707 -.707 .707 .707 -129.096 303.845)" fill="#c17db8" data-original="#9781dd" style="" class=""/><ellipse cx="239.241" cy="333.029" rx="22.56" ry="22.56" transform="matrix(.707 -.707 .707 .707 -165.415 266.711)" fill="#c17db8" data-original="#9781dd" style="" class=""/><ellipse cx="259.559" cy="400.452" rx="22.56" ry="22.56" transform="matrix(.707 -.707 .707 .707 -207.139 300.825)" fill="#c17db8" data-original="#9781dd" style="" class=""/></g><path d="m371.744 85.592h-24.588l-11.592 43.774-18.292 258.125c-2.716 28.067-25.067 49.412-51.742 49.412h-60.013c-23.438 0-43.544-16.487-49.913-39.554l3.246 41.742c3.534 32.669 31.115 57.427 63.975 57.427h74.246c33.002 0 60.654-24.966 64.014-57.797l25.256-336.962c.885-8.649-5.902-16.167-14.597-16.167z" fill="#a7adf1" data-original="#a7adf1" style="" class=""/><path d="m333.729 155.268-5.921 83.547 8.156 12.989 8.092-12.989 5.367-83.547z" fill="#cdbf82" data-original="#85adc2" style="" class=""/><path d="m327.808 238.815-8.514 120.138 2.787 19.364c-.248 2.562-6.032 16.682-6.032 16.682-1.551 6.712-4.252 12.915-7.862 18.378 0 0-4.685 14.316-9.841 18.059-5.673 4.119-22.506 4.385-22.506 4.385-3.338.711-6.787 1.084-10.311 1.084h-20.11l-23.015 6.518-21.945-6.778c-3.107-.321-6.138-.934-9.069-1.808 7.543 18.193 23.491 30.523 41.701 30.523h53.448c23.757 0 43.664-20.972 46.082-48.55l11.433-177.994h-16.246z" fill="#ffbffc" data-original="#ffbffc" style="" class=""/><g fill="#8962de"><path d="m326.814 375.763c0-6.68-2.905-12.68-7.519-16.811l-2.022 28.539c-.248 2.562-.663 5.067-1.227 7.506 6.459-3.968 10.768-11.097 10.768-19.234z" fill="#9b6995" data-original="#8962de" style="" class=""/><path d="m245.421 436.904h-39.903c-1.705 0-3.391-.094-5.056-.266.874 11.662 10.605 20.854 22.49 20.854 11.794-.001 21.468-9.053 22.469-20.588z" fill="#9b6995" data-original="#8962de" style="" class=""/><path d="m308.186 413.375c-7.549 11.426-19.073 19.605-32.347 22.435 1.086 11.448 10.723 20.405 22.455 20.405 12.46 0 22.56-10.101 22.56-22.561.001-8.911-5.167-16.613-12.668-20.279z" fill="#9b6995" data-original="#8962de" style="" class=""/></g><g><path d="m253.845 127.926c-.073 0-.146-.001-.221-.002-14.931-.324-29.816-.354-44.242-.093-5.505.117-10.08-4.295-10.18-9.816-.101-5.521 4.294-10.08 9.816-10.18 14.689-.269 29.845-.235 45.039.093 5.521.12 9.9 4.693 9.781 10.215-.117 5.447-4.571 9.783-9.993 9.783z" fill="#ffffff" data-original="#ffffff" style="" class=""/></g><g><path d="m173.708 127.926h-11.268c-5.522 0-10-4.478-10-10s4.478-10 10-10h11.268c5.522 0 10 4.478 10 10s-4.478 10-10 10z" fill="#ffffff" data-original="#ffffff" style="" class=""/></g><g><path d="m281.713 222.678c-3.313 0-6-2.687-6-6v-14.046c0-3.313 2.687-6 6-6 3.314 0 6 2.687 6 6v14.046c0 3.313-2.687 6-6 6z" fill="#518699" data-original="#518699" style="" class=""/></g><g><path d="m310.999 214.65c-3.313 0-6-2.686-6-6v-14.046c0-3.313 2.687-6 6-6s6 2.687 6 6v14.046c0 3.313-2.687 6-6 6z" fill="#518699" data-original="#518699" style="" class=""/></g></g><path d="m72.741 147.003 6.093 17.133c.261.734.777 1.315 1.429 1.609l15.222 6.858c2.15.969 2.15 4.395 0 5.364l-15.222 6.858c-.652.294-1.168.875-1.429 1.609l-6.093 17.133c-.861 2.42-3.905 2.42-4.766 0l-6.093-17.133c-.261-.734-.777-1.315-1.429-1.609l-15.222-6.858c-2.151-.969-2.151-4.395 0-5.364l15.222-6.858c.652-.294 1.168-.875 1.429-1.609l6.093-17.133c.86-2.42 3.905-2.42 4.766 0z" fill="#c17db8" data-original="#c2b2eb" style="" class=""/><ellipse cx="472.064" cy="121.621" fill="#c17db8" rx="17.937" ry="17.937" transform="matrix(.23 -.973 .973 .23 245.238 553.114)" data-original="#9781dd" style="" class=""/><circle cx="179.09" cy="32.409" fill="#c17db8" r="7.737" data-original="#9781dd" style="" class=""/><path d="m45.78 2.447 8.214 23.098c.352.989 1.048 1.773 1.927 2.168l20.521 9.246c2.899 1.306 2.899 5.925 0 7.232l-20.521 9.246c-.879.396-1.575 1.18-1.927 2.168l-8.214 23.097c-1.16 3.263-5.265 3.263-6.425 0l-8.214-23.098c-.352-.989-1.048-1.773-1.927-2.168l-20.521-9.245c-2.899-1.306-2.899-5.925 0-7.232l20.521-9.246c.879-.396 1.575-1.18 1.927-2.168l8.214-23.098c1.161-3.263 5.265-3.263 6.425 0z" fill="#c17db8" data-original="#c2b2eb" style="" class=""/></g></g></svg>
