<svg id="Capa_1" enable-background="new 0 0 497 497" height="512" viewBox="0 0 497 497" width="512" xmlns="http://www.w3.org/2000/svg"><g><path d="m33.721 38.812c.717-21.147 17.549-37.98 38.696-38.696 57.593-1.952 117.245 20.92 158.116 61.791 49.115 49.115 53.567 114.018 16.282 151.303s-102.188 32.833-151.303-16.282c-40.871-40.871-63.743-100.523-61.791-158.116z" fill="#6ac75e"/><path d="m95.512 196.927c49.115 49.115 114.018 53.567 151.303 16.282s32.833-102.188-16.282-151.303c-10.843-10.843-23.017-20.404-36.115-28.586-24.087 4.678-43.047 23.649-47.575 47.937l-6.298 33.709-28.5 23.629c-7.339 6.085-12.967 13.642-16.656 22.005-8.944.597-17.596 2.01-25.903 4.212 7.598 11.58 16.295 22.385 26.026 32.115z" fill="#3cb767"/><path d="m180.058 153.953c-1.919 0-3.839-.732-5.304-2.197l-72.19-72.19c-2.929-2.929-2.929-7.678 0-10.606 2.93-2.929 7.678-2.929 10.607 0l72.19 72.19c2.929 2.929 2.929 7.678 0 10.607-1.464 1.463-3.384 2.196-5.303 2.196z" fill="#3cb767"/><path d="m484.981 311.512-13.857 18.384c-5.181 6.873-7.165 15.638-5.452 24.072l3.67 18.065c2.889 14.22-4.794 28.473-18.261 33.875l-18.148 7.28c-7.227 2.899-13.046 8.49-16.232 15.595l-8.201 18.289c-5.843 13.031-20.051 20.15-33.987 17.03l-18.211-4.077c-8.575-1.92-17.56.009-24.591 5.28l-16.441 12.324c-10.682 8.007-25.367 8.008-36.049 0l-16.443-12.325c-7.031-5.27-16.015-7.199-24.589-5.28l-18.214 4.077c-13.937 3.12-28.144-3.999-33.987-17.031l-8.2-18.289c-3.186-7.106-9.006-12.697-16.233-15.596l-18.144-7.278c-13.467-5.402-21.151-19.656-18.262-33.875l3.67-18.064c1.714-8.435-.271-17.199-5.452-24.072l-13.856-18.384c-7.385-9.798-8.072-23.102-1.736-33.608l17.62-29.216c4.004-6.639 5.287-14.568 3.582-22.131l-7.92-35.121c-2.488-11.032 1.429-22.527 10.135-29.745l28.5-23.63c5.408-4.484 9.074-10.72 10.362-17.625l6.28-33.679c2.346-12.584 12.406-22.3 25.064-24.207l36.146-5.448c5.109-.77 9.934-2.845 14.008-6.023l27.208-21.229c10.866-8.478 26.107-8.478 36.973 0l27.208 21.229c4.074 3.179 8.898 5.253 14.008 6.023l36.146 5.448c12.658 1.908 22.718 11.624 25.064 24.207l6.28 33.677c1.288 6.906 4.954 13.142 10.362 17.626l28.499 23.629c8.706 7.218 12.623 18.713 10.135 29.745l-7.92 35.122c-1.705 7.563-.422 15.492 3.582 22.13l17.62 29.217c6.337 10.507 5.65 23.811-1.736 33.609z" fill="#e26e7e"/><path d="m338.007 358.455-4.798-12.6 5.146-12.037c10.229-23.939 1.901-51.748-19.805-66.125l-9.935-6.579-2.165-15.415c-3.077-21.913-18.945-39.508-40.424-44.827l-11.164-2.764c-10.757-2.664-22.071-2.155-32.395 1.334-29.622-19.55-61.576-32.432-91.948-37.153-8.224 7.244-11.884 18.409-9.463 29.147l7.92 35.121c1.705 7.563.422 15.492-3.582 22.131l-17.62 29.216c-6.336 10.507-5.649 23.81 1.736 33.608l13.856 18.384c5.181 6.873 7.165 15.638 5.452 24.072l-3.67 18.064c-2.889 14.22 4.795 28.473 18.262 33.875l18.144 7.278c7.227 2.899 13.047 8.491 16.233 15.596l8.2 18.289c5.843 13.031 20.05 20.151 33.986 17.031l18.214-4.078c8.574-1.919 17.559.01 24.589 5.28l16.443 12.325c.889.666 1.813 1.256 2.753 1.811 11.894-8.388 20.298-21.446 22.443-36.436l1.918-13.398 10.162-6.444c21.543-13.659 30.589-40.872 21.512-64.706z" fill="#d9495d"/><path d="m244.489 255.873c57.529 57.529 45.83 123.251-1.922 171.002s-113.474 59.45-171.002 1.922c-57.529-57.529-93.787-153.792-37.327-210.251 56.46-56.46 152.723-20.202 210.251 37.327z" fill="#efedff"/><path d="m247.652 227.229 11.164 2.764c9.473 2.346 16.569 10.214 17.926 19.879l2.546 18.133c.952 6.779 4.765 12.825 10.473 16.605l12.225 8.096c9.622 6.373 13.317 18.711 8.782 29.323l-6.112 14.302c-2.434 5.695-2.563 12.113-.358 17.901l5.674 14.899c4.043 10.616.056 22.611-9.538 28.694l-12.536 7.949c-5.902 3.743-9.871 9.882-10.861 16.8l-2.316 16.178c-1.505 10.512-9.763 18.771-20.275 20.276l-16.18 2.316c-6.918.99-13.057 4.959-16.799 10.861l-7.951 12.537c-6.084 9.593-18.078 13.579-28.694 9.536l-14.898-5.674c-5.788-2.204-12.206-2.076-17.902.358l-14.298 6.111c-10.613 4.536-22.951.841-29.324-8.782l-8.095-12.224c-3.78-5.708-9.826-9.521-16.605-10.473l-18.133-2.546c-9.664-1.357-17.533-8.453-19.879-17.926l-2.764-11.163c-2.332-9.42.437-19.374 7.299-26.236l171.195-171.196c6.86-6.861 16.814-9.63 26.234-7.298z" fill="#e26e7e"/><g><g><ellipse cx="217.602" cy="153.582" fill="#eda1ab" rx="29.387" ry="23.403"/><ellipse cx="376.891" cy="153.582" fill="#eda1ab" rx="29.387" ry="23.403"/><path d="m320.94 135.601c0-14.643-10.608-16.019-23.693-16.019-13.086 0-23.694 1.376-23.694 16.019s10.608 26.513 23.694 26.513c13.085 0 23.693-11.87 23.693-26.513z" fill="#565e75"/></g><g fill="#565e75"><path d="m222.515 133.142c-4.143 0-7.5-3.358-7.5-7.5v-12c0-4.142 3.357-7.5 7.5-7.5s7.5 3.358 7.5 7.5v12c0 4.142-3.358 7.5-7.5 7.5z"/><path d="m371.979 133.142c-4.143 0-7.5-3.358-7.5-7.5v-12c0-4.142 3.357-7.5 7.5-7.5s7.5 3.358 7.5 7.5v12c0 4.142-3.358 7.5-7.5 7.5z"/></g></g><g fill="#d9495d"><path d="m367.892 264.687c-4.214 0-8.176-1.641-11.155-4.62l-14.95-14.951c-2.929-2.929-2.929-7.678.001-10.607 2.929-2.929 7.678-2.927 10.606.001l14.949 14.95c.3.3.795.302 1.097 0l14.95-14.951c2.93-2.929 7.678-2.929 10.608 0 2.929 2.929 2.929 7.678 0 10.606l-14.95 14.95c-2.981 2.981-6.942 4.622-11.156 4.622z"/><path d="m391.37 374.541h-21.143c-4.143 0-7.5-3.358-7.5-7.5s3.357-7.5 7.5-7.5h21.143c.428 0 .775-.348.775-.775v-21.142c0-4.142 3.357-7.5 7.5-7.5s7.5 3.358 7.5 7.5v21.142c.001 8.698-7.077 15.775-15.775 15.775z"/><path d="m173.381 432.408h-21.143c-8.699 0-15.776-7.077-15.776-15.776v-21.142c0-4.142 3.357-7.5 7.5-7.5s7.5 3.358 7.5 7.5v21.142c0 .428.349.776.776.776h21.143c4.142 0 7.5 3.358 7.5 7.5s-3.358 7.5-7.5 7.5z"/><path d="m252.59 332.354c-1.919 0-3.839-.732-5.303-2.197l-14.95-14.95c-.304-.302-.797-.302-1.099 0l-14.95 14.949c-2.929 2.929-7.678 2.929-10.607 0s-2.929-7.678.001-10.606l14.949-14.95c6.151-6.149 16.159-6.152 22.311 0l14.95 14.95c2.93 2.929 2.93 7.677.001 10.606-1.464 1.466-3.384 2.198-5.303 2.198z"/></g></g></svg>