<svg height="512" viewBox="0 0 512 512" width="512" xmlns="http://www.w3.org/2000/svg"><g id="flat"><path d="m391.866 121.742-2.458-31.214-31.223-2.344a92.288 92.288 0 0 0 -72.284 26.89c-23.375 23.461-38.674 60.992-29.901 92.926l9.185 7.207 10.562 2.86a92.285 92.285 0 0 0 89.493-23.942 92.287 92.287 0 0 0 26.626-72.383z" fill="#029532"/><path d="m365.245 194.121-.007.007q-2.457 2.466-5.069 4.719l-53.069-14.377-33.025 33.146-8.893-2.409-2.441-8.884 33.024-33.146-14.565-53.014q2.244-2.613 4.7-5.085l.007-.007a89.577 89.577 0 0 1 8.443-7.483l14.43 52.533 20.945-21.021-11.361-45.1a91.99 91.99 0 0 1 15.4-4.391l9.132 36.272 36-36.136 10.509.787.825 10.506-36 36.136 36.3 9.005a90.229 90.229 0 0 1 -4.328 15.409l-45.141-11.2-20.948 21.026 52.587 14.236a89.658 89.658 0 0 1 -7.455 8.471z" fill="#027226"/><path d="m263.773 44.377-23.773-20.377-23.773 20.377a92.285 92.285 0 0 0 -32.227 70.068 92.285 92.285 0 0 0 46.5 80.126l9.5 5.429 9.5-5.429a92.285 92.285 0 0 0 46.5-80.126 92.285 92.285 0 0 0 -32.227-70.068z" fill="#02a437"/><path d="m296 114.44v.01q0 3.48-.26 6.92l-47.74 27.27v46.79l-8 4.57-8-4.57v-46.79l-47.74-27.27q-.255-3.435-.26-6.92v-.01a89.583 89.583 0 0 1 .7-11.26l47.3 27.03v-29.68l-39.88-23.93a92.042 92.042 0 0 1 7.81-13.98l32.07 19.25v-51.01l8-6.86 8 6.86v51.01l32.07-19.24a90.255 90.255 0 0 1 7.81 13.97l-39.88 23.93v29.68l47.3-27.03a89.583 89.583 0 0 1 .7 11.26z" fill="#02a437"/><path d="m296 114.44v.01q0 3.48-.26 6.92l-47.74 27.27v46.79l-8 4.57-8-4.57v-46.79l-47.74-27.27q-.255-3.435-.26-6.92v-.01a89.583 89.583 0 0 1 .7-11.26l47.3 27.03v-29.68l-39.88-23.93a92.042 92.042 0 0 1 7.81-13.98l32.07 19.25v-51.01l8-6.86 8 6.86v51.01l32.07-19.24a90.255 90.255 0 0 1 7.81 13.97l-39.88 23.93v29.68l47.3-27.03a89.583 89.583 0 0 1 .7 11.26z" fill="#027e2a"/><circle cx="169.918" cy="253.933" fill="#7177cd" r="104.03"/><path d="m104.308 296a8 8 0 0 1 -7.1-4.31 81.053 81.053 0 0 1 -9.173-35.472 8 8 0 0 1 15.994-.44 65.194 65.194 0 0 0 7.373 28.528 8 8 0 0 1 -7.094 11.694z" fill="#8a91fb"/><path d="m99.311 240a8.005 8.005 0 0 1 -7.643-10.373 81.629 81.629 0 0 1 3.332-8.87 8 8 0 1 1 14.626 6.486 65.648 65.648 0 0 0 -2.676 7.128 8 8 0 0 1 -7.639 5.629z" fill="#8a91fb"/><path d="m164.17 184.386a14.984 14.984 0 0 0 14.25 10.353 8.04 8.04 0 0 1 4.726 14.544 14.981 14.981 0 0 0 -5.443 16.751 8.04 8.04 0 0 1 -12.372 8.989 14.985 14.985 0 0 0 -17.614 0 8.04 8.04 0 0 1 -12.372-8.989 14.981 14.981 0 0 0 -5.443-16.751 8.04 8.04 0 0 1 4.726-14.544 14.984 14.984 0 0 0 14.25-10.353 8.039 8.039 0 0 1 15.292 0z" fill="#656ab6"/><circle cx="155.705" cy="209.88" fill="#545897" r="6.502"/><path d="m273.95 253.93a103.625 103.625 0 0 1 -27.43 70.38 104.075 104.075 0 0 1 12.9-123.42 103.463 103.463 0 0 1 14.53 53.04z" fill="#7a80dd"/><path d="m273.77 259.98a104.073 104.073 0 0 1 -145.71 89.21 112.769 112.769 0 0 1 145.71-89.21z" fill="#656ab6"/><path d="m273.95 253.93a103.625 103.625 0 0 1 -27.43 70.38 104.075 104.075 0 0 1 12.9-123.42 103.463 103.463 0 0 1 14.53 53.04z" fill="#656ab6"/><circle cx="351.97" cy="271.272" fill="#7a80dd" r="104.03"/><path d="m352 367.3c0 2.69-.09 5.36-.29 8a104.112 104.112 0 0 1 -102.51-120.26 112.7 112.7 0 0 1 102.8 112.26z" fill="#656ab6"/><path d="m401.161 243.143a18.577 18.577 0 0 0 11.27 18.7 9.967 9.967 0 0 1 -1.628 18.889 18.574 18.574 0 0 0 -14.306 16.5 9.967 9.967 0 0 1 -18.468 4.288 18.574 18.574 0 0 0 -20.111-8.507 9.967 9.967 0 0 1 -9.785-16.239 18.576 18.576 0 0 0 1.876-21.756 9.967 9.967 0 0 1 12.42-14.324 18.576 18.576 0 0 0 21.271-4.939 9.967 9.967 0 0 1 17.461 7.388z" fill="#656ab6"/><circle cx="381.003" cy="268.021" fill="#545897" r="7.585"/><circle cx="221.933" cy="375.301" fill="#7a80dd" r="112.699"/><path d="m221.933 465.368a8 8 0 1 1 0-16 75.111 75.111 0 0 0 9.1-.552 8 8 0 1 1 1.942 15.881 91.066 91.066 0 0 1 -11.042.671z" fill="#8a91fb"/><path d="m264.007 453.782a8 8 0 0 1 -4.114-14.866 74.535 74.535 0 0 0 26.377-26.89 8 8 0 0 1 13.887 7.948 90.567 90.567 0 0 1 -32.05 32.672 7.961 7.961 0 0 1 -4.1 1.136z" fill="#8a91fb"/><path d="m231.924 314.256a22.406 22.406 0 0 0 21.309 15.482c11.647 0 16.489 14.9 7.067 21.749a22.406 22.406 0 0 0 -8.139 25.051c3.6 11.076-9.079 20.287-18.5 13.441a22.406 22.406 0 0 0 -26.339 0c-9.423 6.846-22.1-2.365-18.5-13.441a22.408 22.408 0 0 0 -8.14-25.051c-9.422-6.846-4.58-21.749 7.067-21.749a22.406 22.406 0 0 0 21.309-15.482c3.596-11.077 19.267-11.077 22.866 0z" fill="#656ab6"/><circle cx="220.85" cy="351.461" fill="#545897" r="9.753"/></g></svg>