<svg height="512" viewBox="0 0 58 59" width="512" xmlns="http://www.w3.org/2000/svg"><g id="Page-1" fill="none" fill-rule="evenodd"><g id="033---Cake" fill-rule="nonzero" transform="translate(-1)"><path id="Shape" d="m58.27 28.03-19.96-6.59h-16.62l-2.788.921-8.8 2.91-8.372 2.759c-.43138785.1258572-.7284851.5206302-.73.97v20c.0015149.4493698.29861215.8441428.73.97l26.51 8.75c1.1436316.373363 2.3763684.373363 3.52 0l26.51-8.75c.4313879-.1258572.7284851-.5206302.73-.97v-20c-.0015149-.4493698-.2986121-.8441428-.73-.97z" fill="#ff5364"/><path id="Shape" d="m59 29c-.0015149.4493698-.2986121.8441428-.73.97l-5.14 1.7h-.01l-15.24 5.03-6.13 2.02c-1.1402179.3733364-2.3697821.3733364-3.51 0l-26.51-8.75c-.43285575-.1239729-.73118531-.5197408-.73118531-.97s.29832956-.8460271.73118531-.97l8.37-2.76 11.59-3.83h16.62l19.96 6.59c.4313879.1258572.7284851.5206302.73.97z" fill="#ff5364"/><path id="Shape" d="m30 52v7c-.5975416-.0026798-1.1911275-.0971139-1.76-.28l-26.51-8.75c-.43138785-.1258572-.7284851-.5206302-.73-.97v-7z" fill="#a56a43"/><path id="Shape" d="m59 29v8l-29 10v-8c.5942055-.0034651 1.1843773-.0978926 1.75-.28l6.13-2.02 15.24-5.03h.01l5.14-1.7c.4313879-.1258572.7284851-.5206302.73-.97z" fill="#603e26"/><path id="Shape" d="m59 37v5l-29 10v-5z" fill="#df4d60"/><path id="Shape" d="m59 42v7c-.0015149.4493698-.2986121.8441428-.73.97l-26.51 8.75c-.5688725.1828861-1.1624584.2773202-1.76.28v-7z" fill="#603e26"/><path id="Shape" d="m30 39v8l-29-10v-8c.0015149.4493698.29861215.8441428.73.97l26.51 8.75c.5688725.1828861 1.1624584.2773202 1.76.28z" fill="#a56a43"/><path id="Shape" d="m30 47v5l-29-10v-5z" fill="#ff5364"/><path id="Shape" d="m53.12 31.67-15.24 5.03c-.4263188-.6988305-.9008006-1.3671147-1.42-2-1.2542305-1.6319335-3.0002706-2.8169969-4.98-3.38-2.77-.66-5.67.42-8.49.08-1.2366661-.0773556-2.3884816-.6550686-3.19-1.6-.74-.99-.89-2.38-1.7-3.31-.9484203-.9019326-2.2511661-1.3312883-3.55-1.17-1.2696545.1661841-2.5529005.2030397-3.83.11-.210326-.0379871-.417557-.0914661-.62-.16l8.8-2.91c3.38 3.38 11.55 2.3 11.55 2.3 2.62-.13 6.53-.62 8.97 1.46.7178902.7152603 1.3955956 1.4697502 2.03 2.26 1.7207037 1.6908705 3.9472347 2.7725291 6.34 3.08 1.7654516.2449516 3.5507489.3152917 5.33.21z" fill="#cc4b4c"/><path id="Shape" d="m37.62 13.22c.9050493 1.4297482 1.383756 3.0878771 1.38 4.78 0 4.9705627-4.0294373 9-9 9s-9-4.0294373-9-9c-.003756-1.6921229.4749507-3.3502518 1.38-4.78z" fill="#804537"/><ellipse id="Oval" cx="30" cy="12" fill="#e57e25" rx="8" ry="4"/><path id="Shape" d="m30 11h-.025c-.2655998-.006543-.5176783-.1185096-.7006014-.3111885-.1829231-.192679-.2816525-.4502302-.2743986-.7158115.086-3.419 1.312-6.7 3.124-8.369 2.4288185-2.18864279 6.1397731-2.11512387 8.48.168.2734314.23400374.4000308.59688635.3314951.95019263-.0685356.35330629-.3216337.6425338-.6627265.7573299-.3410929.1147961-.7175621.03745188-.9857686-.20252253-1.5700711-1.61212431-4.1317695-1.70032188-5.809-.2-1.411 1.3-2.407 4.088-2.478 6.946-.0124988.5432822-.456574.9771438-1 .977z" fill="#804537"/></g></g></svg>