<svg height="512" viewBox="0 0 58 59" width="512" xmlns="http://www.w3.org/2000/svg"><g id="Page-1" fill="none" fill-rule="evenodd"><g id="039---Cinnamon-Swirl" fill-rule="nonzero"><path id="Shape" d="m53 30c1.1305181-.081085 2.2571023.2039797 3.213.813.8481777.7674912 1.3907685 1.8153875 1.528 2.951.4448552 2.6169389.29585 5.3004003-.436 7.852-1.0978377 3.6784431-3.1712016 6.9909874-6 9.586-2.4483823 2.3164156-5.3320659 4.1239862-8.484 5.318-4.8854344 1.7959438-10.0717133 2.6315751-15.274 2.461-1.414107-.0412107-2.8245542-.1657601-4.224-.373-10.886-1.622-19.405-8.253-22.296-19.108-1.63630708-6.353912-1.30255445-13.0551208.957-19.215 3.404048-9.4800831 11.4362445-16.54903522 21.272-18.721 6.5816017-1.44442528 13.467545-.19099488 19.118 3.48 7.094 4.808 10.501 13.623 10.626 21.956z" fill="#f0c419"/><path id="Shape" d="m29.905 48.136c-2.9196711.0373223-5.8154485-.5302569-8.505-1.667-4.3237833-1.8597615-7.523909-5.6411897-8.643-10.213-.2475925-.9282492-.4148758-1.8760765-.5-2.833-.72-8.149 3.984-15.6 11.184-17.722 4.345978-1.2197264 9.0072289-.4971961 12.78 1.981 2.9376125 1.885998 4.8636979 5.0003078 5.239 8.471.624 6.152-4.46 12.521-10.673 13.363-3.2348868.3499454-6.4232512-.9833844-8.446-3.532-1.8284207-2.1389971-2.3727803-5.0927301-1.427-7.743 1.1495575-3.0640651 4.2060866-4.9811005 7.465-4.682.5475903.0734539.9319539.5769097.8585 1.1245s-.5769097.9319539-1.1245.8585c-2.3336358-.2023547-4.5135013 1.1838267-5.32 3.383-.6951034 1.9918475-.2737903 4.203265 1.105 5.8 1.5828338 2.0042763 4.0789783 3.0623097 6.62 2.806 5.115-.694 9.465-6.127 8.952-11.18-.3116618-2.880475-1.9207507-5.4612768-4.37-7.009-3.2852393-2.1303791-7.3237164-2.7568888-11.1-1.722-6.29 1.851-10.393 8.424-9.757 15.627.0738282.842261.2196952 1.6766466.436 2.494.9475657 3.9939929 3.7394004 7.2985984 7.519 8.9 5.4 2.385 13.178 1.838 19.345-1.363 1.7651294-.8946469 3.3951966-2.033876 4.842-3.384 2.034286-1.882915 3.6346198-4.185826 4.69-6.749.4429935-1.1115734.7576959-2.2700675.938-3.453.0535898-.3533357.2916112-.6512415.6244038-.7814991.3327926-.1302577.7097973-.073078.989.15.2792028.223078.418186.5781634.3645962.9314991-.2032161 1.3333005-.5578413 2.6390724-1.057 3.892-1.161005 2.8321375-2.9248772 5.3774505-5.169 7.459-1.5826914 1.4811841-3.3670534 2.7309109-5.3 3.712-3.8843083 2.0052701-8.1886656 3.0611399-12.56 3.081z" fill="#f29c1f"/><ellipse id="Oval" cx="46.122" cy="29.425" fill="#603e26" rx="3" ry="2" transform="matrix(.268 -.963 .963 .268 5.412 65.974)"/><ellipse id="Oval" cx="30.49" cy="31.411" fill="#603e26" rx="3" ry="2" transform="matrix(.678 -.735 .735 .678 -13.271 32.528)"/><ellipse id="Oval" cx="8.768" cy="42.402" fill="#603e26" rx="2" ry="3" transform="matrix(.866 -.5 .5 .866 -20.026 10.065)"/><ellipse id="Oval" cx="27.33" cy="53.424" fill="#603e26" rx="2" ry="3" transform="matrix(.612 -.791 .791 .612 -31.643 42.322)"/><ellipse id="Oval" cx="41.989" cy="13.983" fill="#603e26" rx="3" ry="2" transform="matrix(.993 -.116 .116 .993 -1.338 4.964)"/><ellipse id="Oval" cx="47.215" cy="47.292" fill="#603e26" rx="3" ry="2" transform="matrix(.866 -.5 .5 .866 -17.32 29.943)"/><ellipse id="Oval" cx="7.328" cy="27.246" fill="#603e26" rx="3" ry="2" transform="matrix(.533 -.846 .846 .533 -19.631 18.922)"/><ellipse id="Oval" cx="20.328" cy="10.246" fill="#603e26" rx="3" ry="2" transform="matrix(.533 -.846 .846 .533 .823 21.984)"/><g fill="#fff"><path id="Shape" d="m40 41c-.3212672-.0002439-.6228543-.1548257-.8106349-.4155001s-.2388857-.5956946-.1373651-.9004999l1-3c.1128959-.3394023.398285-.5927937.748664-.6647242.350379-.0719304.712517.0485281.95.316.2374831.2674719.3142319.6413219.201336.9807242l-1 3c-.1364192.4095928-.5202889.6853983-.952.684z"/><path id="Shape" d="m45 23c-.3212672-.0002439-.6228543-.1548257-.8106349-.4155001s-.2388857-.5956946-.1373651-.9004999l1-3c.1128959-.3394023.398285-.5927937.748664-.6647242.350379-.0719304.712517.0485282.95.3160001.2374831.2674719.3142319.6413218.201336.9807241l-1 3c-.1364192.4095928-.5202889.6853983-.952.684z"/><path id="Shape" d="m32 44c-.1073885.0000777-.2140884-.0171429-.316-.051l-3-1c-.5246705-.174522-.808522-.7413295-.634-1.266s.7413295-.808522 1.266-.634l3 1c.4690221.1524496.7568689.6240766.6780177 1.1109083-.0788513.4868317-.5008533.8434857-.9940177.8400917z"/><path id="Shape" d="m19 37c-.3808256.0020788-.7297741-.2123306-.9-.553l-1-2c-.2468713-.4942949-.0462949-1.0951287.448-1.342s1.0951287-.0462949 1.342.448l1 2c.1545455.3092668.1383796.6764236-.0427493.9709106-.1811288.294487-.5015228.4745236-.8472507.4760894z"/><path id="Shape" d="m8 36c-.38082562.0020788-.72977408-.2123306-.9-.553l-1-2c-.15969774-.3197527-.13667849-.7004141.06038662-.9985928.1970651-.2981786.53823719-.4685741.89500002-.447s.67491565.2318401.83461336.5515928l1 2c.15454552.3092668.13837957.6764236-.04274927.9709106-.18112885.294487-.50152279.4745236-.84725073.4760894z"/><path id="Shape" d="m19 26c-.4043959-.0000863-.7689341-.2437275-.923678-.6173454-.1547439-.373618-.0692299-.8036603.216678-1.0896546l2-2c.3923789-.3789722 1.0160848-.3735524 1.4018186.0121814s.3911536 1.0094397.0121814 1.4018186l-2 2c-.1874927.1875494-.4418052.2929434-.707.293z"/><path id="Shape" d="m27 11c-.4043959-.0000863-.7689341-.2437275-.923678-.6173454-.1547439-.373618-.0692299-.80366035.216678-1.0896546l2-2c.2510745-.25995658.6228779-.3642126.9725073-.27269716.3496295.09151544.6226744.3645604.7141899.71418984.0915154.34962943-.0127406.72143285-.2726972.97250732l-2 2c-.1874927.1875494-.4418052.2929434-.707.293z"/><path id="Shape" d="m8.316 21c-.4907827.0003557-.90928744-.3554987-.98783452-.8399553-.07854709-.4844565.20608149-.954313.67183452-1.1090447l2.684-.894c.5246705-.174522 1.091478.1093295 1.266.634s-.1093295 1.091478-.634 1.266l-2.683.9c-.10267453.0312515-.20971048.0457706-.317.043z"/><path id="Shape" d="m33 24c-.2651948-.0000566-.5195073-.1054506-.707-.293l-2-2c-.3789722-.3923789-.3735524-1.0160848.0121814-1.4018186s1.0094397-.3911536 1.4018186-.0121814l2 2c.2859079.2859943.3714219.7160366.216678 1.0896546-.1547439.3736179-.5192821.6172591-.923678.6173454z"/><path id="Shape" d="m36 12c-.2651948-.0000566-.5195073-.1054506-.707-.293l-2-2c-.3789722-.39237889-.3735524-1.01608478.0121814-1.40181858.3857338-.38573379 1.0094397-.39115363 1.4018186-.01218142l2 2c.2859079.2859943.3714219.7160366.216678 1.0896546-.1547439.3736179-.5192821.6172591-.923678.6173454z"/><path id="Shape" d="m14 16c-.2651948-.0000566-.5195073-.1054506-.707-.293l-2-2c-.3789722-.3923789-.3735524-1.0160848.0121814-1.4018186s1.0094397-.3911536 1.4018186-.0121814l2 2c.2859079.2859943.3714219.7160366.216678 1.0896546-.1547439.3736179-.5192821.6172591-.923678.6173454z"/><path id="Shape" d="m52 43c-.3464401-.000185-.6681037-.1796678-.8501945-.4743943-.1820909-.2947265-.1986643-.6627032-.0438055-.9726057l1-2c.2468713-.4942948.8477051-.6948712 1.342-.448.4942948.2468713.6948713.8477052.448 1.342l-1 2c-.1695854.3393743-.5166139.553556-.896.553z"/><path id="Shape" d="m34 53c-.4684292.0057459-.8780642-.3144677-.985575-.7704286-.1075108-.455961.1159217-.9254452.537575-1.1295714l2-1c.4942949-.2468713 1.0951287-.0462949 1.342.448s.0462949 1.0951287-.448 1.342l-2 1c-.1381167.0707786-.2908117.1084388-.446.11z"/><path id="Shape" d="m19 53c-.4684292.0057459-.8780642-.3144677-.985575-.7704286-.1075108-.455961.1159217-.9254452.537575-1.1295714l2-1c.3197527-.1596977.7004141-.1366785.9985927.0603866.2981787.1970651.4685741.5382372.4470001.895-.0215741.3567629-.2318401.6749157-.5515928.8346134l-2 1c-.1381167.0707786-.2908117.1084388-.446.11z"/><path id="Shape" d="m42 53c-.1543931.001545-.307047-.0326823-.446-.1l-2-1c-.4942949-.2468713-.6948713-.8477051-.448-1.342s.8477051-.6948713 1.342-.448l2 1c.4098463.2099351.6233472.6726076.5171381 1.1206772s-.5046672.7656851-.9651381.7693228z"/><path id="Shape" d="m16 49c-.1543931.001545-.307047-.0326823-.446-.1l-2-1c-.4942949-.2468713-.6948713-.8477051-.448-1.342s.8477051-.6948713 1.342-.448l2 1c.4098463.2099351.6233472.6726076.5171381 1.1206772s-.5046672.7656851-.9651381.7693228z"/></g></g></g></svg>