<svg id="Capa_1" enable-background="new 0 0 497 497" height="512" viewBox="0 0 497 497" width="512" xmlns="http://www.w3.org/2000/svg"><g><path d="m140.623 376.635-126.246-21.572s-18.447 63.26 53.939 130.551c16.807 15.624 42.992 15.093 59.218-1.134 5.801-5.801 9.821-13.142 11.542-21.164 3.578-16.674 7.872-48.07 1.547-86.681z" fill="#ffca8a"/><path d="m485.615 68.316c-67.292-72.386-130.552-53.939-130.552-53.939l21.571 126.246c38.611 6.326 70.008 2.031 86.683-1.547 8.022-1.721 15.362-5.741 21.164-11.542 16.227-16.227 16.758-42.411 1.134-59.218z" fill="#ffca8a"/><path d="m57.52 362.435-43.143-7.372s-18.447 63.26 53.939 130.551c16.807 15.624 42.992 15.093 59.218-1.133.688-.688 1.346-1.4 1.983-2.13-34.48-27.611-58.703-66.801-71.997-119.916z" fill="#ffbe73"/><path d="m17.698 201.471s-23.75 81.819-16.225 143.99c2.64 21.815 16.667 40.568 36.971 48.971 15.518 6.422 37.701 12.591 67.736 14.431 18.721 1.147 36.958-6.533 49.182-20.759 14.943-17.39 33.885-45.792 44.555-86.34z" fill="#ffb25a"/><path d="m408.862 106.18c-1.84-30.035-8.009-52.218-14.431-67.736-8.403-20.304-27.155-34.331-48.971-36.971-62.171-7.524-143.99 16.226-143.99 16.226l100.292 182.219c40.549-10.671 68.951-29.613 86.34-44.555 14.227-12.224 21.907-30.461 20.76-49.183z" fill="#ffb25a"/><path d="m45.526 251.849c0-11.49.7-22.815 2.022-33.95l-29.85-16.429s-23.75 81.819-16.225 143.99c2.64 21.815 16.667 40.568 36.971 48.971 8.792 3.639 19.73 7.194 33.018 9.929-17.134-40.008-25.936-90.305-25.936-152.511z" fill="#ffa83f"/><path d="m315.155 147.607c-18.031-52.727-36.703-88.573-51.301-111.645-14.389-22.741-42.12-33.385-67.964-25.883-41.747 12.118-83.791 32.854-118.374 67.437s-55.32 76.627-67.437 118.374c-7.502 25.844 3.142 53.575 25.883 67.964 23.072 14.598 58.918 33.27 111.645 51.301 26.814 9.169 56.352 5.825 80.329-9.281 13.525-8.521 28.793-19.868 43.431-34.507 14.638-14.638 25.986-29.907 34.507-43.431 15.106-23.977 18.45-53.515 9.281-80.329z" fill="#ffca8a"/><g fill="#ff8997"><ellipse cx="100.785" cy="230.531" rx="33.852" ry="26.958" transform="matrix(.707 -.707 .707 .707 -133.491 138.788)"/><ellipse cx="230.531" cy="100.785" rx="33.852" ry="26.958" transform="matrix(.707 -.707 .707 .707 -3.746 192.528)"/></g><g><path d="m91.083 203.534-9.785-9.785c-2.929-2.929-2.929-7.678 0-10.607s7.678-2.929 10.606 0l9.785 9.785c2.929 2.929 2.929 7.678 0 10.607s-7.678 2.929-10.606 0z" fill="#423e4f"/></g><g><path d="m192.927 101.689-9.785-9.785c-2.929-2.929-2.929-7.678 0-10.607s7.678-2.929 10.606 0l9.785 9.785c2.929 2.929 2.929 7.678 0 10.607-2.928 2.929-7.677 2.929-10.606 0z" fill="#423e4f"/></g><g><path d="m133.078 167.925c-4.133-.284-7.252-3.864-6.969-7.996.284-4.132 3.87-7.253 7.996-6.969 5.116.351 10.113-1.519 13.724-5.13 3.612-3.612 5.482-8.614 5.131-13.725-.284-4.132 2.836-7.712 6.969-7.996 4.126-.284 7.712 2.836 7.996 6.969.648 9.438-2.811 18.681-9.489 25.359-6.679 6.68-15.924 10.136-25.358 9.488z" fill="#423e4f"/></g><path d="m45.526 251.849c0-94.523 46.057-178.277 116.94-230.086-30.287 12.527-59.621 30.422-84.951 55.752-34.583 34.583-55.32 76.627-67.437 118.374-7.502 25.845 3.142 53.575 25.883 67.964 3.048 1.928 6.325 3.93 9.828 5.989-.169-5.887-.263-11.876-.263-17.993z" fill="#ffbe73"/></g></svg>