<svg height="512" viewBox="0 0 58 58" width="512" xmlns="http://www.w3.org/2000/svg"><g id="Page-1" fill="none" fill-rule="evenodd"><g id="002---Cake" fill-rule="nonzero" transform="translate(-1)"><path id="Shape" d="m52 35.71c.2315352-.2204227.5030759-.3945483.8-.513 1.6995555-.5437287 3.5218267.3718515 4.1 2.06.6513706 1.3682379.2980788 3.0036504-.86 3.981 1.599971.4366712 2.7626824 1.8179881 2.92 3.469.4098119 2.0246945-.8963367 3.999126-2.92 4.414-.4303736.0542657-.8674188.0129513-1.28-.121.2845659 1.1615577.0745412 2.3891155-.58 3.39-1.0096811 1.8635817-3.3195752 2.5844815-5.21 1.626-.3811196-.2347809-.7055461-.5510113-.95-.926-.1681631 2.3214105-2.1773811 4.0725556-4.5 3.922-1.5079885.0279431-2.9358218-.6773991-3.83-1.892-.8439034 1.8046302-2.678589 2.9360851-4.67 2.88-2.76 0-5-.566-5-3h-.02c0 2.434-2.24 3-5 3-1.990148.0545154-3.8235827-1.0749904-4.67-2.877-.8927305 1.2163271-2.3215203 1.9221419-3.83 1.892-2.3214873.1472131-4.3286803-1.6021671-4.5-3.922-.2417316.3772172-.5667222.6939975-.95.926-1.89042478.9584815-4.20031891.2375817-5.21-1.626-.65538172-1.0016745-.86543766-2.2305017-.58-3.393-.41280598.1329427-.84984663.1732324-1.28.118-2.02366328-.414874-3.32981194-2.3893055-2.92-4.414.16063392-1.6496181 1.32196802-3.0292989 2.92-3.469-1.15397354-.9798134-1.50661439-2.6122125-.86-3.981.58367999-1.6882427 2.40941055-2.6006638 4.11-2.054.28413608.1110171.54521782.2737694.77.48z" fill="#f3d55b"/><path id="Shape" d="m52 22.91v13.09c0 5.52-9.85 10-22 10s-22-4.48-22-10v-13.09c2.86 4.1 11.63 7.09 22 7.09s19.14-2.99 22-7.09z" fill="#f9eab0"/><path id="Shape" d="m52 16v6.91c-2.86 4.1-11.63 7.09-22 7.09s-19.14-2.99-22-7.09v-6.91z" fill="#603e26"/><path id="Shape" d="m35.15 6.28h.01c9.66 1.05 16.84 5 16.84 9.72 0 5.52-9.85 10-22 10s-22-4.48-22-10c0-4.72 7.18-8.67 16.84-9.72z" fill="#805333"/><g fill="#c03a2b"><path id="Shape" d="m33 39.429c-.1270331 1.5340262-1.4646106 2.6803301-3 2.571-1.5353894.1093301-2.8729669-1.0369738-3-2.571 0-1.421 1.343-5.429 3-5.429s3 4.008 3 5.429z"/><path id="Shape" d="m23 38.429c-.1270331 1.5340262-1.4646106 2.6803301-3 2.571-1.5353894.1093301-2.8729669-1.0369738-3-2.571 0-1.421 1.343-5.429 3-5.429s3 4.008 3 5.429z"/><path id="Shape" d="m14 34.75c0 1.243-1.343 2.25-3 2.25s-3-1.007-3-2.25 1.343-4.75 3-4.75 3 3.507 3 4.75z"/><path id="Shape" d="m37 38.429c.229813 1.4790064 1.5032455 2.5698498 3 2.5698498s2.770187-1.0908434 3-2.5698498c0-1.421-1.343-5.429-3-5.429s-3 4.008-3 5.429z"/><path id="Shape" d="m46 34.75c0 1.243 1.343 2.25 3 2.25s3-1.007 3-2.25-1.343-4.75-3-4.75-3 3.507-3 4.75z"/></g><path id="Shape" d="m36 10c1.8487771.6925613 3.3074387 2.1512229 4 4 0 0 0 1-3 1 0 0 1 1 1 4 0 0-4 1-5-1-.6888965 1.2690336-1.7309664 2.3111035-3 3-1.2690336-.6888965-2.3111035-1.7309664-3-3-1 2-5 1-5 1 0-3 1-4 1-4-3 0-3-1-3-1 .6925613-1.8487771 2.1512229-3.3074387 4-4z" fill="#24ae5f"/><path id="Shape" d="m52 36v5c0 5.52-9.85 10-22 10s-22-4.48-22-10v-5c0 5.52 9.85 10 22 10s22-4.48 22-10z" fill="#603e26"/><path id="Shape" d="m12 17c-.5522847 0-1-.4477153-1-1 0-2.492 3.792-4.514 4.553-4.895.3195741-.1598764.7001657-.1371175.9984097.0597036s.4688301.5378026.4475.8945c-.02133.3566975-.2313356.67492-.5509097.8347964-1.448.726-3.448 2.206-3.448 3.106 0 .5522847-.4477153 1-1 1z" fill="#cf976a"/><path id="Shape" d="m36 10.179c0 2.662-2.686 4.821-6 4.821s-6-2.159-6-4.821 2.686-10.179 6-10.179 6 7.516 6 10.179z" fill="#c03a2b"/></g></g></svg>