<svg height="512" viewBox="0 0 54 58" width="512" xmlns="http://www.w3.org/2000/svg"><g id="Page-1" fill="none" fill-rule="evenodd"><g id="026---Cupcake" fill-rule="nonzero"><path id="Shape" d="m52.79 11.07c-4.36-8.39-13.25-10.52-17.47-11.05-.5808014-.0808403-1.1682919.09228849-1.6124374.47517257-.4441456.38288408-.7019455.9384539-.7075626 1.52482743v11.34c-3.8407457-3.49649286-9.5020166-4.10710137-14-1.51l-.08.04c1.725246 2.3601948 2.1882506 5.4145319 1.24 8.18-.0561294.2000827-.1228909.3970291-.2.59-.3230807-1.447046-1.0353958-2.7783146-2.06-3.85-1.66-1.64-4.02-2.09-5.38-.66-.8658876.9576222-1.2903286 2.234573-1.17 3.52-1.2696404-.0832185-2.51094602.4001217-3.39 1.32-1.27 1.33-.92 3.5.48 5.13.1.12.2.24.32.36 1.07469731 1.0159423 2.4114419 1.7120192 3.86 2.01.7178453-.3073847 1.4891693-.4704841 2.27-.48l.01-.01 14.22 3 14.22-3 .88-.51c.8158511-.4704701 1.4112502-1.2459256 1.6550797-2.1555972s.116093-1.8789572-.3550797-2.6944028v-.01c-.4704701-.8158511-1.2459256-1.4112502-2.1555972-1.6550797s-1.8789572-.116093-2.6944028.3550797c1.1015817-.6343294 1.7803555-1.8088368 1.78-3.08.0032974-.0838321-.0034167-.1677583-.02-.25l9.36-4.22c.5020502-.2153008.8935196-.6275172 1.0826304-1.1400072.1891107-.5124901.1592323-1.0801854-.0826304-1.5699928z" fill="#f9eab0"/><path id="Shape" d="m51 34v2h-42.0000513l.0000513-2c-.01343943-3.2748215 2.6154163-5.9483098 5.89-5.99l.01-.01h30.1c3.3137085 0 6 2.6862915 6 6z" fill="#f29c1f"/><path id="Shape" d="m53.47 37.93-9.35 17.92c-.6871994 1.3203024-2.0515645 2.1489422-3.54 2.15h-21.16c-1.4884355-.0010578-2.8528006-.8296976-3.54-2.15l-9.35-17.92c-.3255752-.6198606-.30329697-1.3648441.05873635-1.9641422.36203333-.5992981 1.01110203-.9656403 1.71126365-.9658578h43.4c.7001616.0002175 1.3492303.3665597 1.7112636.9658578.3620334.5992981.3843116 1.3442816.0587364 1.9641422z" fill="#894b9d"/><g fill="#3d324c"><path id="Shape" d="m21 55c-.3887936.0003383-.7425404-.2247024-.907-.577l-7-15c-.2234996-.4984974-.0055771-1.084101.4894355-1.3152161.4950126-.2311152 1.0838881-.0221954 1.3225645.4692161l7 15c.1444954.3095303.1209945.6714044-.0623214.9596459-.183316.2882415-.5010827.4629683-.8426786.4633541z"/><path id="Shape" d="m27 55c-.4748929-.000378-.8840215-.3347017-.979-.8l-3-15c-.08744-.5317506.2622052-1.0371542.7906321-1.1428396s1.0455623.2263622 1.1693679.7508396l3 15c.1055726.5388294-.2430574 1.0619977-.781 1.172-.0657776.0136833-.1328154.020387-.2.02z"/><path id="Shape" d="m39 55c-.3415959-.0003858-.6593626-.1751126-.8426786-.4633541-.1833159-.2882415-.2068168-.6501156-.0623214-.9596459l7-15c.1476556-.3293336.4613177-.5535485.8207141-.5866705s.7087544.1299889.9141145.4267886.2348536.6812295.0771714 1.0058819l-7 15c-.1644596.3522976-.5182064.5773383-.907.577z"/><path id="Shape" d="m33 55c-.067187.0004396-.1342304-.0062648-.2-.02-.2599387-.0529946-.4881678-.2071045-.6344551-.428411-.1462874-.2213065-.1986434-.4916715-.1455449-.751589l3-15c.0593016-.3606322.3106176-.6601885.6554537-.7812685s.728259-.0443954 1 .2.388511.6175689.3045463.9732685l-3 15c-.0917246.4688464-.5022659.8073335-.98.808z"/></g><path id="Shape" d="m42.45 18.25c.0003555 1.2711632-.6784183 2.4456706-1.78 3.08l-11.55 6.67h-14.22l.67-.38.01-.01 19.73-11.39 1.81-1.04c1.6983124-.9800258 3.8695229-.3980519 4.85 1.3.2711701.4632513.428803.9841253.46 1.52.0165833.0822417.0232974.1661679.02.25z" fill="#f3d55b"/><path id="Shape" d="m44.22 27.49-.88.51h-14.22l11.55-6.67c.8154456-.4711727 1.7847312-.5989092 2.6944028-.3550797s1.6851271.8392286 2.1555972 1.6550797v.01c.4711727.8154456.5989092 1.7847312.3550797 2.6944028s-.8392286 1.6851271-1.6550797 2.1555972z" fill="#f0c419"/><path id="Shape" d="m20.16 20.07c.9482506-2.7654681.485246-5.8198052-1.24-8.18l.08-.04c4.4979834-2.59710137 10.1592543-1.98649286 14 1.51.9171342.824479 1.6969252 1.7899345 2.31 2.86l-19.73 11.39c1.8888851-2.0131014 3.3755616-4.3687031 4.38-6.94v-.01c.0771091-.1929709.1438706-.3899173.2-.59z" fill="#f9eab0"/><path id="Shape" d="m51.79 13.78-9.36 4.22c-.031197-.5358747-.1888299-1.0567487-.46-1.52-.9804771-1.6980519-3.1516876-2.2800258-4.85-1.3l-1.81 1.04c-.6130748-1.0700655-1.3928658-2.035521-2.31-2.86v-11.34c.0056171-.58637353.263417-1.14194335.7075626-1.52482743.4441455-.38288408 1.031636-.55601287 1.6124374-.47517257 4.22.53 13.11 2.66 17.47 11.05.2418627.4898074.2717411 1.0575027.0826304 1.5699928-.1891108.51249-.5805802.9247064-1.0826304 1.1400072z" fill="#a56a43"/><path id="Shape" d="m19.96 20.66v.01c-1.0044384 2.5712969-2.4911149 4.9268986-4.38 6.94l-.01.01-.67.38-.01.01c-.7808307.0095159-1.5521547.1726153-2.27.48-1.4485581-.2979808-2.78530269-.9940577-3.86-2.01-.12-.12-.22-.24-.32-.36-1.4-1.63-1.75-3.8-.48-5.13.87905398-.9198783 2.1203596-1.4032185 3.39-1.32-.1203286-1.285427.3041124-2.5623778 1.17-3.52 1.36-1.43 3.72-.98 5.38.66 1.0246042 1.0716854 1.7369193 2.402954 2.06 3.85z" fill="#df4d60"/><path id="Shape" d="m11.025 20.513c-.3698866-.0000733-.7095232-.2043168-.883-.531-.9183655-1.804123-2.62845525-3.0742005-4.621-3.432-1.25545929-.1612747-2.44751022.5953161-2.836 1.8-.09824803.3436895-.37238912.608857-.71915698.6956165-.34676787.0867594-.7134802-.01807-.96200002-.275-.24851982-.2569301-.34109105-.626927-.242843-.9706165.65461158-2.1337565 2.73885678-3.4963381 4.956-3.24 2.6571288.4290642 4.9535952 2.0922401 6.19 4.483.164982.3098382.1554277.6834942-.0251734.984496-.180601.3010017-.5058013.4852701-.8568266.485504z" fill="#24ae5f"/></g></g></svg>